<?xml version="1.0" encoding="utf-8"?>
<svg version="1.1" xmlns:xlink="http://www.w3.org/1999/xlink" width="94px" height="102px" xmlns="http://www.w3.org/2000/svg">
  <g transform="matrix(1 0 0 1 -242 -330 )">
    <path d="M 39.1666666666667 79.0234375  C 40.2274305555556 79.0234375  41.1453993055556 78.6028645833333  41.9205729166667 77.76171875  L 79.49609375 36.98828125  C 80.2712673611111 36.1471354166667  80.6588541666667 35.1510416666667  80.6588541666667 34  C 80.6588541666667 32.8489583333333  80.2712673611111 31.8528645833333  79.49609375 31.01171875  L 73.25390625 24.23828125  C 72.4787326388889 23.3971354166667  71.5607638888889 22.9765625  70.5 22.9765625  C 69.4392361111111 22.9765625  68.5212673611111 23.3971354166667  67.74609375 24.23828125  L 39.1666666666667 55.25  L 26.25390625 41.23828125  C 25.4787326388889 40.3971354166667  24.5607638888889 39.9765625  23.5 39.9765625  C 22.4392361111111 39.9765625  21.5212673611111 40.3971354166667  20.74609375 41.23828125  L 14.50390625 48.01171875  C 13.7287326388889 48.8528645833333  13.3411458333333 49.8489583333333  13.3411458333333 51  C 13.3411458333333 52.1510416666667  13.7287326388889 53.1471354166667  14.50390625 53.98828125  L 36.4127604166667 77.76171875  C 37.1879340277778 78.6028645833333  38.1059027777778 79.0234375  39.1666666666667 79.0234375  Z M 88.8287760416667 5.611328125  C 92.2762586805556 9.35221354166666  94 13.8567708333333  94 19.125  L 94 82.875  C 94 88.1432291666667  92.2762586805556 92.6477864583333  88.8287760416667 96.388671875  C 85.3812934027778 100.129557291667  81.2300347222222 102  76.375 102  L 17.625 102  C 12.7699652777778 102  8.61870659722222 100.129557291667  5.17122395833333 96.388671875  C 1.72374131944444 92.6477864583333  0 88.1432291666667  0 82.875  L 0 19.125  C 0 13.8567708333333  1.72374131944444 9.35221354166666  5.17122395833333 5.611328125  C 8.61870659722222 1.87044270833333  12.7699652777778 0  17.625 0  L 76.375 0  C 81.2300347222222 0  85.3812934027778 1.87044270833333  88.8287760416667 5.611328125  Z " fill-rule="nonzero" fill="#70b603" stroke="none" transform="matrix(1 0 0 1 242 330 )" />
  </g>
</svg>